<?xml version="1.0" encoding="UTF-8" standalone="no"?>
<!-- Created with Inkscape (http://www.inkscape.org/) -->

<svg
   xmlns:dc="http://purl.org/dc/elements/1.1/"
   xmlns:cc="http://creativecommons.org/ns#"
   xmlns:rdf="http://www.w3.org/1999/02/22-rdf-syntax-ns#"
   xmlns:svg="http://www.w3.org/2000/svg"
   xmlns="http://www.w3.org/2000/svg"
   xmlns:sodipodi="http://sodipodi.sourceforge.net/DTD/sodipodi-0.dtd"
   xmlns:inkscape="http://www.inkscape.org/namespaces/inkscape"
   width="75.548096mm"
   height="8.154458mm"
   viewBox="0 0 75.548096 8.154458"
   version="1.1"
   id="svg8"
   inkscape:version="0.92.3 (2405546, 2018-03-11)"
   sodipodi:docname="SebastianBlei Heading Rechnung Paths.svg">
  <defs
     id="defs2">
    <inkscape:perspective
       sodipodi:type="inkscape:persp3d"
       inkscape:vp_x="-3.6081388 : 0.93681218 : 1"
       inkscape:vp_y="0 : 1000 : 0"
       inkscape:vp_z="75.548096 : 4.077229 : 1"
       inkscape:persp3d-origin="37.774048 : 2.7181527 : 1"
       id="perspective4563" />
  </defs>
  <sodipodi:namedview
     id="base"
     pagecolor="#ffffff"
     bordercolor="#666666"
     borderopacity="1.0"
     inkscape:pageopacity="0.0"
     inkscape:pageshadow="2"
     inkscape:zoom="3.959798"
     inkscape:cx="144.79823"
     inkscape:cy="-15.685145"
     inkscape:document-units="mm"
     inkscape:current-layer="text4553"
     showgrid="false"
     fit-margin-top="0"
     fit-margin-left="0"
     fit-margin-right="0"
     fit-margin-bottom="0"
     inkscape:window-width="1920"
     inkscape:window-height="1172"
     inkscape:window-x="1920"
     inkscape:window-y="0"
     inkscape:window-maximized="1"
     showborder="false" />
  <metadata
     id="metadata5">
    <rdf:RDF>
      <cc:Work
         rdf:about="">
        <dc:format>image/svg+xml</dc:format>
        <dc:type
           rdf:resource="http://purl.org/dc/dcmitype/StillImage" />
        <dc:title></dc:title>
      </cc:Work>
    </rdf:RDF>
  </metadata>
  <g
     inkscape:label="Ebene 1"
     inkscape:groupmode="layer"
     id="layer1"
     transform="translate(-47.96675,-10.729088)">
    <g
       aria-label="Sebastian Blei"
       style="font-style:normal;font-weight:normal;font-size:10.58333302px;line-height:1.25;font-family:sans-serif;letter-spacing:0px;word-spacing:0px;fill:#000000;fill-opacity:1;stroke:none;stroke-width:0.26458332"
       id="text4553">
      <path
         d="m 51.341641,13.914671 c 0,0.07938 0.04762,0.15875 0.132292,0.195792 1.137708,0.523875 1.645708,1.296458 1.645708,2.434166 0,1.418167 -1.2065,1.894417 -2.44475,1.894417 -0.783166,0 -1.4605,-0.153458 -2.206625,-0.508 l 0.227542,-0.60325 c 0.724958,0.338667 1.391708,0.508 1.979083,0.508 1.550458,0 1.778,-0.809625 1.778,-1.291167 0,-1.259416 -0.841375,-1.651 -1.576916,-2.047875 -0.576792,-0.312208 -1.090084,-0.576791 -1.090084,-1.391708 0,-0.560917 0.407459,-0.883708 1.195917,-0.883708 0.555625,0 1.068916,0.142875 1.635125,0.41275 0.02646,0.01058 0.05821,0.02117 0.08467,0.02117 0.08467,0 0.169334,-0.05292 0.201084,-0.142875 l 0.375708,-1.031875 c 0.04233,-0.105833 0.0053,-0.216958 -0.111125,-0.275166 -0.592667,-0.296334 -1.132417,-0.47625 -2.19075,-0.47625 -1.439333,0 -2.746375,0.788458 -2.746375,2.38125 0,1.143 0.545042,1.979083 1.529292,2.497666 0.03175,0.01588 0.06879,0.02646 0.100542,0.02646 0.137583,0 0.22225,-0.116417 0.22225,-0.227542 0,-0.07408 -0.03704,-0.148167 -0.116417,-0.1905 -0.735542,-0.386292 -1.291167,-1.037167 -1.291167,-2.106083 0,-1.285875 1.042459,-1.93675 2.301875,-1.93675 0.899583,0 1.344083,0.127 1.815042,0.343958 l -0.22225,0.608542 c -0.566209,-0.238125 -1.068917,-0.34925 -1.5875,-0.34925 -1.17475,0 -1.640417,0.645583 -1.640417,1.328208 0,1.037167 0.650875,1.423458 1.312334,1.778 0.672041,0.365125 1.354666,0.640292 1.354666,1.661583 0,0.592667 -0.47625,0.846667 -1.3335,0.846667 -0.650875,0 -1.349375,-0.243417 -2.010833,-0.5715 -0.03175,-0.01588 -0.0635,-0.02117 -0.09525,-0.02117 -0.08467,0 -0.169333,0.04763 -0.201083,0.137584 l -0.386292,1.026583 c -0.04233,0.105833 0.01058,0.227542 0.111125,0.280458 0.746125,0.375709 1.550458,0.640292 2.582333,0.640292 1.677458,0 2.88925,-0.79375 2.88925,-2.338917 0,-1.381125 -0.66675,-2.270125 -1.905,-2.836333 -0.153458,-0.06879 -0.3175,0.04233 -0.3175,0.206375 z"
         style="letter-spacing:-1.05833328px;fill:#000000"
         id="path4579" />
      <path
         d="m 55.785649,17.280171 v -2.968625 h 2.709333 v 0.60325 h -1.820333 c -0.121709,0 -0.22225,0.100542 -0.22225,0.22225 0,0.121708 0.100541,0.22225 0.22225,0.22225 h 2.042583 c 0.127,0 0.22225,-0.100542 0.22225,-0.22225 v -1.04775 c 0,-0.121708 -0.09525,-0.22225 -0.22225,-0.22225 h -3.153833 c -0.121709,0 -0.22225,0.100542 -0.22225,0.22225 v 3.413125 c 0,0.121708 0.100541,0.22225 0.22225,0.22225 h 3.127375 v 0.60325 h -4.016375 v -7.037917 h 3.942291 v 0.60325 h -3.053291 c -0.121709,0 -0.22225,0.100542 -0.22225,0.22225 v 0.926042 c 0,0.121708 0.100541,0.22225 0.22225,0.22225 0.127,0 0.22225,-0.100542 0.22225,-0.22225 v -0.703792 h 3.053291 c 0.127,0 0.22225,-0.100541 0.22225,-0.22225 v -1.04775 c 0,-0.121708 -0.09525,-0.22225 -0.22225,-0.22225 h -4.386791 c -0.121709,0 -0.22225,0.100542 -0.22225,0.22225 v 7.482417 c 0,0.121708 0.100541,0.22225 0.22225,0.22225 h 4.460875 c 0.127,0 0.22225,-0.100542 0.22225,-0.22225 v -1.04775 c 0,-0.121708 -0.09525,-0.22225 -0.22225,-0.22225 z"
         style="letter-spacing:-1.05833328px;fill:#000000"
         id="path4581" />
      <path
         d="m 63.724968,13.967588 c 0.07408,-0.05292 0.116417,-0.09525 0.179917,-0.174625 0.148166,-0.206375 0.232833,-0.470959 0.232833,-0.777875 0,-0.518584 -0.381,-1.121834 -1.455208,-1.121834 h -1.418167 c -0.121708,0 -0.22225,0.100542 -0.22225,0.22225 v 3.01625 c 0,0.121709 0.100542,0.22225 0.22225,0.22225 h 1.666875 c 0.79375,0 1.158875,0.465667 1.158875,0.98425 0,0.508 -0.296333,0.941917 -1.037167,0.941917 h -1.566333 v -1.100667 c 0,-0.121708 -0.09525,-0.22225 -0.22225,-0.22225 -0.121708,0 -0.22225,0.100542 -0.22225,0.22225 v 1.322917 c 0,0.121708 0.100542,0.22225 0.22225,0.22225 h 1.788583 c 1.021292,0 1.481667,-0.66675 1.481667,-1.386417 0,-0.814916 -0.613833,-1.42875 -1.603375,-1.42875 h -1.444625 v -2.57175 h 1.195917 c 0.587375,0 1.010708,0.22225 1.010708,0.677334 0,0.576791 -0.396875,0.846666 -0.936625,0.846666 h -0.381 c -0.121708,0 -0.22225,0.100542 -0.22225,0.22225 0,0.121709 0.100542,0.22225 0.22225,0.22225 h 0.402167 c 1.3335,0 2.423583,0.613834 2.423583,2.0955 0,1.026584 -0.756708,1.926167 -2.164292,1.926167 h -2.661708 v -7.037917 h 2.354792 c 1.27,0 2.053166,0.772584 2.053166,1.629834 0,0.232833 -0.02117,0.433916 -0.0635,0.597958 -0.03704,0.142875 0.06879,0.280458 0.211667,0.280458 0.09525,0 0.1905,-0.05821 0.216958,-0.164041 0.05292,-0.195792 0.07937,-0.433917 0.07937,-0.714375 0,-1.068917 -0.941916,-2.074334 -2.497666,-2.074334 h -2.577042 c -0.121708,0 -0.22225,0.100542 -0.22225,0.22225 v 7.482417 c 0,0.121708 0.100542,0.22225 0.22225,0.22225 h 2.883958 c 1.613959,0 2.608792,-1.058333 2.608792,-2.370667 0,-1.312333 -0.735542,-2.137833 -1.920875,-2.434166 z"
         style="letter-spacing:-1.05833328px;fill:#000000"
         id="path4583" />
      <path
         d="m 69.763089,10.845504 h -1.090083 c -0.142875,0 -0.264583,0.08467 -0.312208,0.216959 l -1.613959,4.445 c -0.04233,0.116416 0.04233,0.243416 0.169334,0.243416 h 3.46075 c 0.127,0 0.211666,-0.127 0.169333,-0.243416 l -1.17475,-3.233209 c -0.02646,-0.06879 -0.08996,-0.105833 -0.153458,-0.105833 -0.0635,0 -0.127,0.03175 -0.153459,0.105833 l -0.777875,2.132542 c -0.05292,0.142875 0.05821,0.296333 0.211667,0.296333 0.08996,0 0.174625,-0.05821 0.206375,-0.148166 l 0.513292,-1.402292 0.783166,2.153708 h -2.709333 l 1.4605,-4.016375 h 0.931333 l 2.561167,7.037917 h -0.677334 l -0.634999,-1.756833 c -0.04762,-0.132292 -0.169334,-0.216959 -0.312209,-0.216959 h -3.952875 c -0.142875,0 -0.264583,0.08467 -0.312208,0.216959 l -0.709083,1.957916 c -0.04233,0.116417 0.04233,0.243417 0.169333,0.243417 h 1.127125 c 0.142875,0 0.264583,-0.08996 0.312208,-0.216958 l 0.312209,-0.85725 c 0.05292,-0.142875 -0.05821,-0.296334 -0.211667,-0.296334 -0.08996,0 -0.174625,0.05821 -0.206375,0.142875 l -0.28575,0.783167 h -0.672042 l 0.555625,-1.529292 h 3.794125 l 0.635,1.756834 c 0.04763,0.127 0.169334,0.216958 0.312208,0.216958 h 1.132417 c 0.127,0 0.211667,-0.127 0.169333,-0.243417 l -2.714624,-7.466541 c -0.04763,-0.132292 -0.169334,-0.216959 -0.312209,-0.216959 z"
         style="font-style:normal;font-variant:normal;font-weight:normal;font-stretch:normal;font-family:'LIBRARY 3 AM soft';-inkscape-font-specification:'LIBRARY 3 AM soft';letter-spacing:-0.5291667px;fill:#000000;stroke-width:0.26458332"
         id="path4585" />
      <path
         d="m 76.39024,13.914671 c 0,0.07938 0.04762,0.15875 0.132292,0.195792 1.137708,0.523875 1.645708,1.296458 1.645708,2.434166 0,1.418167 -1.2065,1.894417 -2.44475,1.894417 -0.783166,0 -1.4605,-0.153458 -2.206625,-0.508 l 0.227542,-0.60325 c 0.724958,0.338667 1.391708,0.508 1.979083,0.508 1.550459,0 1.778,-0.809625 1.778,-1.291167 0,-1.259416 -0.841375,-1.651 -1.576916,-2.047875 -0.576792,-0.312208 -1.090084,-0.576791 -1.090084,-1.391708 0,-0.560917 0.407459,-0.883708 1.195917,-0.883708 0.555625,0 1.068917,0.142875 1.635125,0.41275 0.02646,0.01058 0.05821,0.02117 0.08467,0.02117 0.08467,0 0.169333,-0.05292 0.201083,-0.142875 l 0.375708,-1.031875 c 0.04233,-0.105833 0.0053,-0.216958 -0.111125,-0.275166 -0.592666,-0.296334 -1.132416,-0.47625 -2.19075,-0.47625 -1.439333,0 -2.746375,0.788458 -2.746375,2.38125 0,1.143 0.545042,1.979083 1.529292,2.497666 0.03175,0.01588 0.06879,0.02646 0.100542,0.02646 0.137583,0 0.22225,-0.116417 0.22225,-0.227542 0,-0.07408 -0.03704,-0.148167 -0.116417,-0.1905 -0.735542,-0.386292 -1.291167,-1.037167 -1.291167,-2.106083 0,-1.285875 1.042459,-1.93675 2.301875,-1.93675 0.899584,0 1.344084,0.127 1.815042,0.343958 l -0.22225,0.608542 c -0.566208,-0.238125 -1.068917,-0.34925 -1.5875,-0.34925 -1.17475,0 -1.640417,0.645583 -1.640417,1.328208 0,1.037167 0.650875,1.423458 1.312334,1.778 0.672041,0.365125 1.354666,0.640292 1.354666,1.661583 0,0.592667 -0.47625,0.846667 -1.3335,0.846667 -0.650875,0 -1.349375,-0.243417 -2.010833,-0.5715 -0.03175,-0.01588 -0.0635,-0.02117 -0.09525,-0.02117 -0.08467,0 -0.169333,0.04763 -0.201083,0.137584 l -0.386292,1.026583 c -0.04233,0.105833 0.01058,0.227542 0.111125,0.280458 0.746125,0.375709 1.550458,0.640292 2.582333,0.640292 1.677459,0 2.88925,-0.79375 2.88925,-2.338917 0,-1.381125 -0.66675,-2.270125 -1.905,-2.836333 -0.153458,-0.06879 -0.3175,0.04233 -0.3175,0.206375 z"
         style="letter-spacing:-1.05833328px;fill:#000000"
         id="path4587" />
      <path
         d="m 84.083332,10.845504 h -2.06375 c -0.121709,0 -0.22225,0.100542 -0.22225,0.22225 v 7.260167 h -0.66675 v -7.260167 c 0,-0.121708 -0.100542,-0.22225 -0.22225,-0.22225 H 78.83929 c -0.121708,0 -0.22225,0.100542 -0.22225,0.22225 v 1.04775 c 0,0.127 0.100542,0.22225 0.22225,0.22225 h 0.957792 c 0.121708,0 0.22225,-0.09525 0.22225,-0.22225 0,-0.121708 -0.100542,-0.22225 -0.22225,-0.22225 H 79.06154 v -0.60325 h 1.624542 v 7.260167 c 0,0.127 0.100542,0.22225 0.22225,0.22225 h 1.11125 c 0.121708,0 0.22225,-0.09525 0.22225,-0.22225 v -7.260167 h 1.61925 v 0.60325 h -0.73025 c -0.121709,0 -0.22225,0.100542 -0.22225,0.22225 0,0.127 0.100541,0.22225 0.22225,0.22225 h 0.9525 c 0.121708,0 0.22225,-0.09525 0.22225,-0.22225 v -1.04775 c 0,-0.121708 -0.100542,-0.22225 -0.22225,-0.22225 z"
         style="letter-spacing:-1.05833328px;fill:#000000"
         id="path4589" />
      <path
         d="m 86.176518,12.337754 c 0.121709,0 0.22225,-0.100541 0.22225,-0.22225 v -1.04775 c 0,-0.121708 -0.100541,-0.22225 -0.22225,-0.22225 h -1.11125 c -0.121708,0 -0.22225,0.100542 -0.22225,0.22225 0,0.121709 0.100542,0.22225 0.22225,0.22225 h 0.889 v 0.60325 h -0.889 c -0.121708,0 -0.22225,0.100542 -0.22225,0.22225 v 6.434667 c 0,0.121708 0.100542,0.22225 0.22225,0.22225 h 1.11125 c 0.121709,0 0.22225,-0.100542 0.22225,-0.22225 v -5.386917 c 0,-0.121708 -0.100541,-0.22225 -0.22225,-0.22225 -0.121708,0 -0.22225,0.100542 -0.22225,0.22225 v 5.164667 h -0.66675 v -5.990167 z"
         style="letter-spacing:-1.05833328px;fill:#000000"
         id="path4591" />
      <path
         d="m 90.987632,10.845504 h -1.090083 c -0.142875,0 -0.264584,0.08467 -0.312209,0.216959 l -1.613958,4.445 c -0.04233,0.116416 0.04233,0.243416 0.169333,0.243416 h 3.46075 c 0.127,0 0.211667,-0.127 0.169333,-0.243416 l -1.174749,-3.233209 c -0.02646,-0.06879 -0.08996,-0.105833 -0.153459,-0.105833 -0.0635,0 -0.127,0.03175 -0.153458,0.105833 l -0.777875,2.132542 c -0.05292,0.142875 0.05821,0.296333 0.211667,0.296333 0.08996,0 0.174625,-0.05821 0.206375,-0.148166 l 0.513291,-1.402292 0.783167,2.153708 h -2.709333 l 1.4605,-4.016375 h 0.931333 l 2.561166,7.037917 H 92.79209 l -0.635,-1.756833 c -0.04762,-0.132292 -0.169333,-0.216959 -0.312208,-0.216959 h -3.952875 c -0.142875,0 -0.264583,0.08467 -0.312208,0.216959 l -0.709084,1.957916 c -0.04233,0.116417 0.04233,0.243417 0.169334,0.243417 h 1.127125 c 0.142875,0 0.264583,-0.08996 0.312208,-0.216958 l 0.312208,-0.85725 c 0.05292,-0.142875 -0.05821,-0.296334 -0.211666,-0.296334 -0.08996,0 -0.174625,0.05821 -0.206375,0.142875 l -0.28575,0.783167 h -0.672042 l 0.555625,-1.529292 h 3.794125 l 0.635,1.756834 c 0.04762,0.127 0.169333,0.216958 0.312208,0.216958 h 1.132417 c 0.127,0 0.211666,-0.127 0.169333,-0.243417 L 91.29984,11.062463 c -0.04762,-0.132292 -0.169333,-0.216959 -0.312208,-0.216959 z"
         style="letter-spacing:-1.05833328px;fill:#000000"
         id="path4593" />
      <path
         d="m 99.361034,10.845504 c -0.127,0 -0.22225,0.100542 -0.22225,0.22225 v 4.968875 l -2.989791,-5.074708 c -0.03704,-0.06879 -0.105834,-0.116417 -0.1905,-0.116417 -0.174625,0 -0.28575,0.185209 -0.195792,0.338667 l 3.52425,5.984875 c 0.03175,0.05292 0.08467,0.07937 0.132292,0.07937 0.08467,0 0.164041,-0.0635 0.164041,-0.15875 v -5.799667 h 0.666746 v 7.037917 h -1.021287 l -4.333875,-7.350125 c -0.05292,-0.07937 -0.137584,-0.132292 -0.232834,-0.132292 h -0.0635 c -0.126999,0 -0.222249,0.100542 -0.222249,0.22225 v 7.482417 c 0,0.121708 0.09525,0.22225 0.222249,0.22225 h 1.11125 c 0.121709,0 0.22225,-0.100542 0.22225,-0.22225 v -3.598333 c 0,-0.121709 -0.100541,-0.227542 -0.22225,-0.227542 -0.121708,0 -0.22225,0.100542 -0.22225,0.22225 v 3.381375 h -0.66675 v -6.598708 l 4.048125,6.868583 c 0.0635,0.111125 0.179917,0.174625 0.306917,0.174625 h 1.296454 c 0.12171,0 0.22225,-0.100542 0.22225,-0.22225 v -7.482417 c 0,-0.121708 -0.10054,-0.22225 -0.22225,-0.22225 z"
         style="letter-spacing:-1.05833328px;fill:#000000"
         id="path4595" />
      <path
         d="m 109.71484,14.433254 c 0.33867,-0.418041 0.49213,-0.968375 0.49213,-1.513416 0,-1.058334 -0.92075,-2.074334 -2.45533,-2.074334 h -2.61938 c -0.12171,0 -0.22225,0.100542 -0.22225,0.22225 v 3.01625 c 0,0.121709 0.10054,0.22225 0.22225,0.22225 h 2.57175 c 0.88371,0 1.41288,-0.460375 1.41288,-1.291166 0,-0.529167 -0.381,-1.121834 -1.44992,-1.121834 h -1.42346 c -0.12171,0 -0.22225,0.100542 -0.22225,0.22225 v 0.92075 c 0,0.121709 0.10054,0.22225 0.22225,0.22225 0.12171,0 0.22225,-0.100541 0.22225,-0.22225 v -0.6985 h 1.20121 c 0.59267,0 1.00542,0.227542 1.00542,0.677334 0,0.550333 -0.30692,0.846666 -0.92605,0.846666 h -2.39183 v -2.57175 h 2.39713 c 1.27,0 2.01083,0.799042 2.01083,1.629834 0,0.73025 -0.28575,1.153583 -0.57679,1.434041 -0.0423,0.03704 -0.0582,0.08467 -0.0582,0.132292 0,0.05821 0.0318,0.121708 0.0952,0.153458 0.58208,0.328084 0.96308,0.883709 0.96308,1.762125 0,1.021292 -0.762,1.926167 -2.16958,1.926167 h -2.66171 v -2.979208 h 2.55588 c 0.79904,0 1.16416,0.470958 1.16416,0.989541 0,0.502709 -0.29633,0.941917 -1.03716,0.941917 h -1.57163 v -1.105958 c 0,-0.121709 -0.10054,-0.22225 -0.22225,-0.22225 -0.12171,0 -0.22225,0.100541 -0.22225,0.22225 v 1.328208 c 0,0.121708 0.10054,0.22225 0.22225,0.22225 h 1.79388 c 1.016,0 1.48166,-0.66675 1.48166,-1.386417 0,-0.814916 -0.61912,-1.434041 -1.60866,-1.434041 h -2.77813 c -0.12171,0 -0.22225,0.100541 -0.22225,0.22225 v 3.423708 c 0,0.121708 0.10054,0.22225 0.22225,0.22225 h 2.88396 c 1.61396,0 2.61408,-1.068917 2.61408,-2.370667 0,-0.878416 -0.33337,-1.539875 -0.91546,-1.9685 z"
         style="letter-spacing:-1.05833328px;fill:#000000"
         id="path4597" />
      <path
         d="m 115.51434,17.280171 h -3.71475 v -5.990167 h 0.66675 v 5.164667 c 0,0.121708 0.10055,0.22225 0.22225,0.22225 0.12171,0 0.22225,-0.100542 0.22225,-0.22225 v -5.386917 c 0,-0.121708 -0.10054,-0.22225 -0.22225,-0.22225 h -1.11125 c -0.1217,0 -0.22225,0.100542 -0.22225,0.22225 v 6.434667 c 0,0.121708 0.10055,0.22225 0.22225,0.22225 h 3.71475 v 0.60325 h -3.71475 c -0.1217,0 -0.22225,0.100542 -0.22225,0.22225 0,0.121708 0.10055,0.22225 0.22225,0.22225 h 3.937 c 0.12171,0 0.22225,-0.100542 0.22225,-0.22225 v -1.04775 c 0,-0.121708 -0.10054,-0.22225 -0.22225,-0.22225 z"
         style="letter-spacing:-1.05833328px;fill:#000000"
         id="path4599" />
      <path
         d="m 117.68161,17.280171 v -2.968625 h 2.70933 v 0.60325 h -1.82033 c -0.12171,0 -0.22225,0.100542 -0.22225,0.22225 0,0.121708 0.10054,0.22225 0.22225,0.22225 h 2.04258 c 0.127,0 0.22225,-0.100542 0.22225,-0.22225 v -1.04775 c 0,-0.121708 -0.0953,-0.22225 -0.22225,-0.22225 h -3.15383 c -0.12171,0 -0.22225,0.100542 -0.22225,0.22225 v 3.413125 c 0,0.121708 0.10054,0.22225 0.22225,0.22225 h 3.12738 v 0.60325 h -4.01638 v -7.037917 h 3.94229 v 0.60325 h -3.05329 c -0.12171,0 -0.22225,0.100542 -0.22225,0.22225 v 0.926042 c 0,0.121708 0.10054,0.22225 0.22225,0.22225 0.127,0 0.22225,-0.100542 0.22225,-0.22225 v -0.703792 h 3.05329 c 0.127,0 0.22225,-0.100541 0.22225,-0.22225 v -1.04775 c 0,-0.121708 -0.0952,-0.22225 -0.22225,-0.22225 h -4.38679 c -0.12171,0 -0.22225,0.100542 -0.22225,0.22225 v 7.482417 c 0,0.121708 0.10054,0.22225 0.22225,0.22225 h 4.46088 c 0.127,0 0.22225,-0.100542 0.22225,-0.22225 v -1.04775 c 0,-0.121708 -0.0952,-0.22225 -0.22225,-0.22225 z"
         style="letter-spacing:-1.05833328px;fill:#000000"
         id="path4601" />
      <path
         d="m 123.2926,12.337754 c 0.1217,0 0.22225,-0.100541 0.22225,-0.22225 v -1.04775 c 0,-0.121708 -0.10055,-0.22225 -0.22225,-0.22225 h -1.11125 c -0.12171,0 -0.22225,0.100542 -0.22225,0.22225 0,0.121709 0.10054,0.22225 0.22225,0.22225 h 0.889 v 0.60325 h -0.889 c -0.12171,0 -0.22225,0.100542 -0.22225,0.22225 v 6.434667 c 0,0.121708 0.10054,0.22225 0.22225,0.22225 h 1.11125 c 0.1217,0 0.22225,-0.100542 0.22225,-0.22225 v -5.386917 c 0,-0.121708 -0.10055,-0.22225 -0.22225,-0.22225 -0.12171,0 -0.22225,0.100542 -0.22225,0.22225 v 5.164667 h -0.66675 v -5.990167 z"
         style="letter-spacing:-1.05833328px;fill:#000000"
         id="path4603" />
    </g>
  </g>
</svg>
